<?xml version="1.0" encoding="UTF-8" standalone="no"?>
<!DOCTYPE svg PUBLIC "-//W3C//DTD SVG 1.1//EN"
 "http://www.w3.org/Graphics/SVG/1.1/DTD/svg11.dtd">
<!-- Generated by graphviz version 2.30.1 (20150610.2034)
 -->
<!-- Title: main Pages: 1 -->
<svg width="100%" height="100%" xmlns="http://www.w3.org/2000/svg" xmlns:xlink="http://www.w3.org/1999/xlink">
<script type="text/ecmascript"><![CDATA[
/**
 *  SVGPan library 1.2.2
 * ======================
 *
 * Given an unique existing element with id "viewport" (or when missing, the
 * first g-element), including the library into any SVG adds the following
 * capabilities:
 *
 *  - Mouse panning
 *  - Mouse zooming (using the wheel)
 *  - Object dragging
 *
 * You can configure the behaviour of the pan/zoom/drag with the variables
 * listed in the CONFIGURATION section of this file.
 *
 * Known issues:
 *
 *  - Zooming (while panning) on Safari has still some issues
 *
 * Releases:
 *
 * 1.2.2, Tue Aug 30 17:21:56 CEST 2011, Andrea Leofreddi
 *	- Fixed viewBox on root tag (#7)
 *	- Improved zoom speed (#2)
 *
 * 1.2.1, Mon Jul  4 00:33:18 CEST 2011, Andrea Leofreddi
 *	- Fixed a regression with mouse wheel (now working on Firefox 5)
 *	- Working with viewBox attribute (#4)
 *	- Added "use strict;" and fixed resulting warnings (#5)
 *	- Added configuration variables, dragging is disabled by default (#3)
 *
 * 1.2, Sat Mar 20 08:42:50 GMT 2010, Zeng Xiaohui
 *	Fixed a bug with browser mouse handler interaction
 *
 * 1.1, Wed Feb  3 17:39:33 GMT 2010, Zeng Xiaohui
 *	Updated the zoom code to support the mouse wheel on Safari/Chrome
 *
 * 1.0, Andrea Leofreddi
 *	First release
 *
 * This code is licensed under the following BSD license:
 *
 * Copyright 2009-2017 Andrea Leofreddi <a.leofreddi@vleo.net>. All rights reserved.
 *
 * Redistribution and use in source and binary forms, with or without modification, are
 * permitted provided that the following conditions are met:
 *
 *    1. Redistributions of source code must retain the above copyright
 *       notice, this list of conditions and the following disclaimer.
 *    2. Redistributions in binary form must reproduce the above copyright
 *       notice, this list of conditions and the following disclaimer in the
 *       documentation and/or other materials provided with the distribution.
 *    3. Neither the name of the copyright holder nor the names of its
 *       contributors may be used to endorse or promote products derived from
 *       this software without specific prior written permission.
 *
 * THIS SOFTWARE IS PROVIDED BY COPYRIGHT HOLDERS AND CONTRIBUTORS ''AS IS'' AND ANY EXPRESS
 * OR IMPLIED WARRANTIES, INCLUDING, BUT NOT LIMITED TO, THE IMPLIED WARRANTIES OF MERCHANTABILITY
 * AND FITNESS FOR A PARTICULAR PURPOSE ARE DISCLAIMED. IN NO EVENT SHALL COPYRIGHT HOLDERS OR
 * CONTRIBUTORS BE LIABLE FOR ANY DIRECT, INDIRECT, INCIDENTAL, SPECIAL, EXEMPLARY, OR
 * CONSEQUENTIAL DAMAGES (INCLUDING, BUT NOT LIMITED TO, PROCUREMENT OF SUBSTITUTE GOODS OR
 * SERVICES; LOSS OF USE, DATA, OR PROFITS; OR BUSINESS INTERRUPTION) HOWEVER CAUSED AND ON
 * ANY THEORY OF LIABILITY, WHETHER IN CONTRACT, STRICT LIABILITY, OR TORT (INCLUDING
 * NEGLIGENCE OR OTHERWISE) ARISING IN ANY WAY OUT OF THE USE OF THIS SOFTWARE, EVEN IF
 * ADVISED OF THE POSSIBILITY OF SUCH DAMAGE.
 *
 * The views and conclusions contained in the software and documentation are those of the
 * authors and should not be interpreted as representing official policies, either expressed
 * or implied, of Andrea Leofreddi.
 */

"use strict";

/// CONFIGURATION
/// ====>

var enablePan = 1; // 1 or 0: enable or disable panning (default enabled)
var enableZoom = 1; // 1 or 0: enable or disable zooming (default enabled)
var enableDrag = 0; // 1 or 0: enable or disable dragging (default disabled)
var zoomScale = 0.2; // Zoom sensitivity

/// <====
/// END OF CONFIGURATION

var root = document.documentElement;

var state = 'none', svgRoot = null, stateTarget, stateOrigin, stateTf;

setupHandlers(root);

/**
 * Register handlers
 */
function setupHandlers(root){
	setAttributes(root, {
		"onmouseup" : "handleMouseUp(evt)",
		"onmousedown" : "handleMouseDown(evt)",
		"onmousemove" : "handleMouseMove(evt)",
		//"onmouseout" : "handleMouseUp(evt)", // Decomment this to stop the pan functionality when dragging out of the SVG element
	});

	if(navigator.userAgent.toLowerCase().indexOf('webkit') >= 0)
		window.addEventListener('mousewheel', handleMouseWheel, false); // Chrome/Safari
	else
		window.addEventListener('DOMMouseScroll', handleMouseWheel, false); // Others
}

/**
 * Retrieves the root element for SVG manipulation. The element is then cached into the svgRoot global variable.
 */
function getRoot(root) {
	if(svgRoot == null) {
		var r = root.getElementById("viewport") ? root.getElementById("viewport") : root.documentElement, t = r;

		while(t != root) {
			if(t.getAttribute("viewBox")) {
				setCTM(r, t.getCTM());

				t.removeAttribute("viewBox");
			}

			t = t.parentNode;
		}

		svgRoot = r;
	}

	return svgRoot;
}

/**
 * Instance an SVGPoint object with given event coordinates.
 */
function getEventPoint(evt) {
	var p = root.createSVGPoint();

	p.x = evt.clientX;
	p.y = evt.clientY;

	return p;
}

/**
 * Sets the current transform matrix of an element.
 */
function setCTM(element, matrix) {
	var s = "matrix(" + matrix.a + "," + matrix.b + "," + matrix.c + "," + matrix.d + "," + matrix.e + "," + matrix.f + ")";

	element.setAttribute("transform", s);
}

/**
 * Dumps a matrix to a string (useful for debug).
 */
function dumpMatrix(matrix) {
	var s = "[ " + matrix.a + ", " + matrix.c + ", " + matrix.e + "\n  " + matrix.b + ", " + matrix.d + ", " + matrix.f + "\n  0, 0, 1 ]";

	return s;
}

/**
 * Sets attributes of an element.
 */
function setAttributes(element, attributes){
	for (var i in attributes)
		element.setAttributeNS(null, i, attributes[i]);
}

/**
 * Handle mouse wheel event.
 */
function handleMouseWheel(evt) {
	if(!enableZoom)
		return;

	if(evt.preventDefault)
		evt.preventDefault();

	evt.returnValue = false;

	var svgDoc = evt.target.ownerDocument;

	var delta;

	if(evt.wheelDelta)
		delta = evt.wheelDelta / 360; // Chrome/Safari
	else
		delta = evt.detail / -9; // Mozilla

	var z = Math.pow(1 + zoomScale, delta);

	var g = getRoot(svgDoc);
	
	var p = getEventPoint(evt);

	p = p.matrixTransform(g.getCTM().inverse());

	// Compute new scale matrix in current mouse position
	var k = root.createSVGMatrix().translate(p.x, p.y).scale(z).translate(-p.x, -p.y);

        setCTM(g, g.getCTM().multiply(k));

	if(typeof(stateTf) == "undefined")
		stateTf = g.getCTM().inverse();

	stateTf = stateTf.multiply(k.inverse());
}

/**
 * Handle mouse move event.
 */
function handleMouseMove(evt) {
	if(evt.preventDefault)
		evt.preventDefault();

	evt.returnValue = false;

	var svgDoc = evt.target.ownerDocument;

	var g = getRoot(svgDoc);

	if(state == 'pan' && enablePan) {
		// Pan mode
		var p = getEventPoint(evt).matrixTransform(stateTf);

		setCTM(g, stateTf.inverse().translate(p.x - stateOrigin.x, p.y - stateOrigin.y));
	} else if(state == 'drag' && enableDrag) {
		// Drag mode
		var p = getEventPoint(evt).matrixTransform(g.getCTM().inverse());

		setCTM(stateTarget, root.createSVGMatrix().translate(p.x - stateOrigin.x, p.y - stateOrigin.y).multiply(g.getCTM().inverse()).multiply(stateTarget.getCTM()));

		stateOrigin = p;
	}
}

/**
 * Handle click event.
 */
function handleMouseDown(evt) {
	if(evt.preventDefault)
		evt.preventDefault();

	evt.returnValue = false;

	var svgDoc = evt.target.ownerDocument;

	var g = getRoot(svgDoc);

	if(
		evt.target.tagName == "svg"
		|| !enableDrag // Pan anyway when drag is disabled and the user clicked on an element
	) {
		// Pan mode
		state = 'pan';

		stateTf = g.getCTM().inverse();

		stateOrigin = getEventPoint(evt).matrixTransform(stateTf);
	} else {
		// Drag mode
		state = 'drag';

		stateTarget = evt.target;

		stateTf = g.getCTM().inverse();

		stateOrigin = getEventPoint(evt).matrixTransform(stateTf);
	}
}

/**
 * Handle mouse button release event.
 */
function handleMouseUp(evt) {
	if(evt.preventDefault)
		evt.preventDefault();

	evt.returnValue = false;

	var svgDoc = evt.target.ownerDocument;

	if(state == 'pan' || state == 'drag') {
		// Quit pan mode
		state = '';
	}
}
]]></script><g id="viewport" transform="scale(0.5,0.5) translate(0,0)"><g id="graph0" class="graph" transform="scale(1 1) rotate(0) translate(4 1208)">
<title>main</title>
<polygon fill="white" stroke="white" points="-4,5 -4,-1208 985,-1208 985,5 -4,5"/>
<g id="clust1" class="cluster"><title>cluster_L</title>
<polygon fill="none" stroke="black" points="194,-1082 194,-1196 678,-1196 678,-1082 194,-1082"/>
</g>
<!-- File: main -->
<g id="node1" class="node"><title>File: main</title>
<g id="a_node1"><a xlink:title="main">
<polygon fill="#f8f8f8" stroke="black" points="669.25,-1188 202.75,-1188 202.75,-1090 669.25,-1090 669.25,-1188"/>
<text text-anchor="start" x="210.5" y="-1171.2" font-family="Times,serif" font-size="16.00">File: main</text>
<text text-anchor="start" x="210.5" y="-1153.2" font-family="Times,serif" font-size="16.00">Type: alloc_space</text>
<text text-anchor="start" x="210.5" y="-1135.2" font-family="Times,serif" font-size="16.00">Time: Jun 18, 2020 at 12:11am (CST)</text>
<text text-anchor="start" x="210.5" y="-1117.2" font-family="Times,serif" font-size="16.00">Showing nodes accounting for 211.90MB, 99.53% of 212.90MB total</text>
<text text-anchor="start" x="210.5" y="-1099.2" font-family="Times,serif" font-size="16.00">Dropped 1 node (cum &lt;= 1.06MB)</text>
</a>
</g>
</g>
<!-- N1 -->
<g id="node1" class="node"><title>N1</title>
<g id="a_node1"><a xlink:title="encoding/json.(*decodeState).object (148.60MB)">
<polygon fill="#edd7d5" stroke="#b21200" points="623,-854 455,-854 455,-756 623,-756 623,-854"/>
<text text-anchor="middle" x="539" y="-837.2" font-family="Times,serif" font-size="16.00">json</text>
<text text-anchor="middle" x="539" y="-819.2" font-family="Times,serif" font-size="16.00">(*decodeState)</text>
<text text-anchor="middle" x="539" y="-801.2" font-family="Times,serif" font-size="16.00">object</text>
<text text-anchor="middle" x="539" y="-783.2" font-family="Times,serif" font-size="16.00">20MB (9.39%)</text>
<text text-anchor="middle" x="539" y="-765.2" font-family="Times,serif" font-size="16.00">of 148.60MB (69.80%)</text>
</a>
</g>
</g>
<!-- NN1_0 -->
<g id="NN1_0" class="node"><title>NN1_0</title>
<g id="a_NN1_0"><a xlink:title="20MB">
<polygon fill="#f8f8f8" stroke="black" points="566,-700 516,-700 512,-696 512,-664 562,-664 566,-668 566,-700"/>
<polyline fill="none" stroke="black" points="562,-696 512,-696 "/>
<polyline fill="none" stroke="black" points="562,-696 562,-664 "/>
<polyline fill="none" stroke="black" points="562,-696 566,-700 "/>
<text text-anchor="middle" x="539" y="-680.1" font-family="Times,serif" font-size="8.00">32B..4kB</text>
</a>
</g>
</g>
<!-- N1&#45;&gt;NN1_0 -->
<g id="edge1" class="edge"><title>N1&#45;&gt;NN1_0</title>
<g id="a_edge1"><a xlink:title="20MB">
<path fill="none" stroke="black" d="M539,-755.83C539,-740.333 539,-723.709 539,-710.262"/>
<polygon fill="black" stroke="black" points="542.5,-710.241 539,-700.241 535.5,-710.241 542.5,-710.241"/>
</a>
</g>
<g id="a_edge1&#45;label"><a xlink:title="20MB">
<text text-anchor="middle" x="559" y="-726.3" font-family="Times,serif" font-size="14.00"> 20MB</text>
</a>
</g>
</g>
<!-- N5 -->
<g id="node5" class="node"><title>N5</title>
<g id="a_node5"><a xlink:title="encoding/json.(*decodeState).value (148.60MB)">
<polygon fill="#edd7d5" stroke="#b21200" points="650.25,-576 553.75,-576 553.75,-532 650.25,-532 650.25,-576"/>
<text text-anchor="middle" x="602" y="-565.6" font-family="Times,serif" font-size="8.00">json</text>
<text text-anchor="middle" x="602" y="-556.6" font-family="Times,serif" font-size="8.00">(*decodeState)</text>
<text text-anchor="middle" x="602" y="-547.6" font-family="Times,serif" font-size="8.00">value</text>
<text text-anchor="middle" x="602" y="-538.6" font-family="Times,serif" font-size="8.00">0 of 148.60MB (69.80%)</text>
</a>
</g>
</g>
<!-- N1&#45;&gt;N5 -->
<g id="edge17" class="edge"><title>N1&#45;&gt;N5</title>
<g id="a_edge17"><a xlink:title="encoding/json.(*decodeState).object &#45;&gt; encoding/json.(*decodeState).value (148.60MB)">
<path fill="none" stroke="#b21200" stroke-width="4" d="M574.915,-755.659C578.057,-749.909 580.853,-743.96 583,-738 601.325,-687.126 603.722,-623.511 603.244,-586.253"/>
<polygon fill="#b21200" stroke="#b21200" points="606.739,-585.952 603.031,-576.027 599.74,-586.098 606.739,-585.952"/>
</a>
</g>
<g id="a_edge17&#45;label"><a xlink:title="encoding/json.(*decodeState).object &#45;&gt; encoding/json.(*decodeState).value (148.60MB)">
<text text-anchor="middle" x="632" y="-678.3" font-family="Times,serif" font-size="14.00"> 148.60MB</text>
</a>
</g>
</g>
<!-- N16 -->
<g id="node16" class="node"><title>N16</title>
<g id="a_node16"><a xlink:title="reflect.Value.SetMapIndex (80.60MB)">
<polygon fill="#eddbd5" stroke="#b22d00" points="225.25,-576 132.75,-576 132.75,-532 225.25,-532 225.25,-576"/>
<text text-anchor="middle" x="179" y="-565.6" font-family="Times,serif" font-size="8.00">reflect</text>
<text text-anchor="middle" x="179" y="-556.6" font-family="Times,serif" font-size="8.00">Value</text>
<text text-anchor="middle" x="179" y="-547.6" font-family="Times,serif" font-size="8.00">SetMapIndex</text>
<text text-anchor="middle" x="179" y="-538.6" font-family="Times,serif" font-size="8.00">0 of 80.60MB (37.86%)</text>
</a>
</g>
</g>
<!-- N1&#45;&gt;N16 -->
<g id="edge20" class="edge"><title>N1&#45;&gt;N16</title>
<g id="a_edge20"><a xlink:title="encoding/json.(*decodeState).object &#45;&gt; reflect.Value.SetMapIndex (80.60MB)">
<path fill="none" stroke="#b22d00" stroke-width="2" d="M454.905,-795.555C388.878,-784.729 298.748,-760.074 241,-704 207.989,-671.946 191.817,-619.699 184.464,-586.359"/>
<polygon fill="#b22d00" stroke="#b22d00" points="187.826,-585.333 182.376,-576.248 180.971,-586.749 187.826,-585.333"/>
</a>
</g>
<g id="a_edge20&#45;label"><a xlink:title="encoding/json.(*decodeState).object &#45;&gt; reflect.Value.SetMapIndex (80.60MB)">
<text text-anchor="middle" x="269.5" y="-678.3" font-family="Times,serif" font-size="14.00"> 80.60MB</text>
</a>
</g>
</g>
<!-- N15 -->
<g id="node15" class="node"><title>N15</title>
<g id="a_node15"><a xlink:title="reflect.Value.Convert (34MB)">
<polygon fill="#ede2da" stroke="#b26023" points="345.25,-576 262.75,-576 262.75,-532 345.25,-532 345.25,-576"/>
<text text-anchor="middle" x="304" y="-565.6" font-family="Times,serif" font-size="8.00">reflect</text>
<text text-anchor="middle" x="304" y="-556.6" font-family="Times,serif" font-size="8.00">Value</text>
<text text-anchor="middle" x="304" y="-547.6" font-family="Times,serif" font-size="8.00">Convert</text>
<text text-anchor="middle" x="304" y="-538.6" font-family="Times,serif" font-size="8.00">0 of 34MB (15.97%)</text>
</a>
</g>
</g>
<!-- N1&#45;&gt;N15 -->
<g id="edge24" class="edge"><title>N1&#45;&gt;N15</title>
<g id="a_edge24"><a xlink:title="encoding/json.(*decodeState).object &#45;&gt; reflect.Value.Convert (34MB)">
<path fill="none" stroke="#b26023" d="M454.82,-789.266C405.856,-775.901 348.037,-750.775 318,-704 295.296,-668.644 295.69,-618.498 299.06,-586.357"/>
<polygon fill="#b26023" stroke="#b26023" points="302.563,-586.542 300.287,-576.194 295.613,-585.702 302.563,-586.542"/>
</a>
</g>
<g id="a_edge24&#45;label"><a xlink:title="encoding/json.(*decodeState).object &#45;&gt; reflect.Value.Convert (34MB)">
<text text-anchor="middle" x="338" y="-678.3" font-family="Times,serif" font-size="14.00"> 34MB</text>
</a>
</g>
</g>
<!-- N9 -->
<g id="node9" class="node"><title>N9</title>
<g id="a_node9"><a xlink:title="reflect.Zero (13MB)">
<polygon fill="#edeae5" stroke="#b29a7c" points="535,-583.5 427,-583.5 427,-524.5 535,-524.5 535,-583.5"/>
<text text-anchor="middle" x="481" y="-567.5" font-family="Times,serif" font-size="15.00">reflect</text>
<text text-anchor="middle" x="481" y="-550.5" font-family="Times,serif" font-size="15.00">Zero</text>
<text text-anchor="middle" x="481" y="-533.5" font-family="Times,serif" font-size="15.00">13MB (6.11%)</text>
</a>
</g>
</g>
<!-- N1&#45;&gt;N9 -->
<g id="edge28" class="edge"><title>N1&#45;&gt;N9</title>
<g id="a_edge28"><a xlink:title="encoding/json.(*decodeState).object &#45;&gt; reflect.Zero (13MB)">
<path fill="none" stroke="#b29a7c" d="M454.798,-777.358C420.947,-761.84 385.772,-738.367 368,-704 346.003,-661.462 386.872,-618.475 425.464,-589.68"/>
<polygon fill="#b29a7c" stroke="#b29a7c" points="427.596,-592.458 433.641,-583.757 423.489,-586.789 427.596,-592.458"/>
</a>
</g>
<g id="a_edge28&#45;label"><a xlink:title="encoding/json.(*decodeState).object &#45;&gt; reflect.Zero (13MB)">
<text text-anchor="middle" x="388" y="-678.3" font-family="Times,serif" font-size="14.00"> 13MB</text>
</a>
</g>
</g>
<!-- N2 -->
<g id="node2" class="node"><title>N2</title>
<g id="a_node2"><a xlink:title="runtime.main (212.90MB)">
<polygon fill="#edd5d5" stroke="#b20000" points="778.25,-1157 687.75,-1157 687.75,-1121 778.25,-1121 778.25,-1157"/>
<text text-anchor="middle" x="733" y="-1146.1" font-family="Times,serif" font-size="8.00">runtime</text>
<text text-anchor="middle" x="733" y="-1137.1" font-family="Times,serif" font-size="8.00">main</text>
<text text-anchor="middle" x="733" y="-1128.1" font-family="Times,serif" font-size="8.00">0 of 212.90MB (100%)</text>
</a>
</g>
</g>
<!-- N14 -->
<g id="node14" class="node"><title>N14</title>
<g id="a_node14"><a xlink:title="main.main (212.90MB)">
<polygon fill="#edd5d5" stroke="#b20000" points="778.25,-1038 687.75,-1038 687.75,-1002 778.25,-1002 778.25,-1038"/>
<text text-anchor="middle" x="733" y="-1027.1" font-family="Times,serif" font-size="8.00">main</text>
<text text-anchor="middle" x="733" y="-1018.1" font-family="Times,serif" font-size="8.00">main</text>
<text text-anchor="middle" x="733" y="-1009.1" font-family="Times,serif" font-size="8.00">0 of 212.90MB (100%)</text>
</a>
</g>
</g>
<!-- N2&#45;&gt;N14 -->
<g id="edge14" class="edge"><title>N2&#45;&gt;N14</title>
<g id="a_edge14"><a xlink:title="runtime.main &#45;&gt; main.main (212.90MB)">
<path fill="none" stroke="#b20000" stroke-width="6" d="M733,-1120.99C733,-1101.92 733,-1070.75 733,-1048.28"/>
<polygon fill="#b20000" stroke="#b20000" points="738.25,-1048.03 733,-1038.03 727.75,-1048.03 738.25,-1048.03"/>
</a>
</g>
<g id="a_edge14&#45;label"><a xlink:title="runtime.main &#45;&gt; main.main (212.90MB)">
<text text-anchor="middle" x="765" y="-1060.3" font-family="Times,serif" font-size="14.00"> 212.90MB</text>
</a>
</g>
</g>
<!-- N3 -->
<g id="node3" class="node"><title>N3</title>
<g id="a_node3"><a xlink:title="encoding/json.(*Decoder).Decode (211.79MB)">
<polygon fill="#edd5d5" stroke="#b20000" points="781.25,-827 684.75,-827 684.75,-783 781.25,-783 781.25,-827"/>
<text text-anchor="middle" x="733" y="-816.6" font-family="Times,serif" font-size="8.00">json</text>
<text text-anchor="middle" x="733" y="-807.6" font-family="Times,serif" font-size="8.00">(*Decoder)</text>
<text text-anchor="middle" x="733" y="-798.6" font-family="Times,serif" font-size="8.00">Decode</text>
<text text-anchor="middle" x="733" y="-789.6" font-family="Times,serif" font-size="8.00">0 of 211.79MB (99.48%)</text>
</a>
</g>
</g>
<!-- N13 -->
<g id="node13" class="node"><title>N13</title>
<g id="a_node13"><a xlink:title="encoding/json.(*decodeState).unmarshal (148.60MB)">
<polygon fill="#edd7d5" stroke="#b21200" points="781.25,-704 684.75,-704 684.75,-660 781.25,-660 781.25,-704"/>
<text text-anchor="middle" x="733" y="-693.6" font-family="Times,serif" font-size="8.00">json</text>
<text text-anchor="middle" x="733" y="-684.6" font-family="Times,serif" font-size="8.00">(*decodeState)</text>
<text text-anchor="middle" x="733" y="-675.6" font-family="Times,serif" font-size="8.00">unmarshal</text>
<text text-anchor="middle" x="733" y="-666.6" font-family="Times,serif" font-size="8.00">0 of 148.60MB (69.80%)</text>
</a>
</g>
</g>
<!-- N3&#45;&gt;N13 -->
<g id="edge16" class="edge"><title>N3&#45;&gt;N13</title>
<g id="a_edge16"><a xlink:title="encoding/json.(*Decoder).Decode &#45;&gt; encoding/json.(*decodeState).unmarshal (148.60MB)">
<path fill="none" stroke="#b21200" stroke-width="4" d="M733,-782.923C733,-763.954 733,-735.826 733,-714.242"/>
<polygon fill="#b21200" stroke="#b21200" points="736.5,-714.241 733,-704.241 729.5,-714.241 736.5,-714.241"/>
</a>
</g>
<g id="a_edge16&#45;label"><a xlink:title="encoding/json.(*Decoder).Decode &#45;&gt; encoding/json.(*decodeState).unmarshal (148.60MB)">
<text text-anchor="middle" x="765" y="-726.3" font-family="Times,serif" font-size="14.00"> 148.60MB</text>
</a>
</g>
</g>
<!-- N12 -->
<g id="node12" class="node"><title>N12</title>
<g id="a_node12"><a xlink:title="encoding/json.(*Decoder).readValue (63.20MB)">
<polygon fill="#eddcd5" stroke="#b23600" points="892.25,-704 799.75,-704 799.75,-660 892.25,-660 892.25,-704"/>
<text text-anchor="middle" x="846" y="-693.6" font-family="Times,serif" font-size="8.00">json</text>
<text text-anchor="middle" x="846" y="-684.6" font-family="Times,serif" font-size="8.00">(*Decoder)</text>
<text text-anchor="middle" x="846" y="-675.6" font-family="Times,serif" font-size="8.00">readValue</text>
<text text-anchor="middle" x="846" y="-666.6" font-family="Times,serif" font-size="8.00">0 of 63.20MB (29.68%)</text>
</a>
</g>
</g>
<!-- N3&#45;&gt;N12 -->
<g id="edge22" class="edge"><title>N3&#45;&gt;N12</title>
<g id="a_edge22"><a xlink:title="encoding/json.(*Decoder).Decode &#45;&gt; encoding/json.(*Decoder).readValue (63.20MB)">
<path fill="none" stroke="#b23600" stroke-width="2" d="M756.001,-782.926C769.488,-770.266 786.642,-753.629 801,-738 808.527,-729.807 816.335,-720.561 823.292,-712.021"/>
<polygon fill="#b23600" stroke="#b23600" points="826.119,-714.09 829.664,-704.106 820.667,-709.7 826.119,-714.09"/>
</a>
</g>
<g id="a_edge22&#45;label"><a xlink:title="encoding/json.(*Decoder).Decode &#45;&gt; encoding/json.(*Decoder).readValue (63.20MB)">
<text text-anchor="middle" x="842.5" y="-726.3" font-family="Times,serif" font-size="14.00"> 63.20MB</text>
</a>
</g>
</g>
<!-- N4 -->
<g id="node4" class="node"><title>N4</title>
<g id="a_node4"><a xlink:title="reflect.mapassign (80.60MB)">
<polygon fill="#eddbd5" stroke="#b22d00" points="278,-448 74,-448 74,-362 278,-362 278,-448"/>
<text text-anchor="middle" x="176" y="-424.8" font-family="Times,serif" font-size="24.00">reflect</text>
<text text-anchor="middle" x="176" y="-398.8" font-family="Times,serif" font-size="24.00">mapassign</text>
<text text-anchor="middle" x="176" y="-372.8" font-family="Times,serif" font-size="24.00">80.60MB (37.86%)</text>
</a>
</g>
</g>
<!-- NN4_0 -->
<g id="NN4_0" class="node"><title>NN4_0</title>
<g id="a_NN4_0"><a xlink:title="27.25MB">
<polygon fill="#f8f8f8" stroke="black" points="218,-310 168,-310 164,-306 164,-274 214,-274 218,-278 218,-310"/>
<polyline fill="none" stroke="black" points="214,-306 164,-306 "/>
<polyline fill="none" stroke="black" points="214,-306 214,-274 "/>
<polyline fill="none" stroke="black" points="214,-306 218,-310 "/>
<text text-anchor="middle" x="191" y="-290.1" font-family="Times,serif" font-size="8.00">208B..14kB</text>
</a>
</g>
</g>
<!-- N4&#45;&gt;NN4_0 -->
<g id="edge2" class="edge"><title>N4&#45;&gt;NN4_0</title>
<g id="a_edge2"><a xlink:title="27.25MB">
<path fill="none" stroke="black" d="M181.714,-361.719C183.583,-347.882 185.611,-332.882 187.292,-320.436"/>
<polygon fill="black" stroke="black" points="190.798,-320.629 188.669,-310.25 183.861,-319.692 190.798,-320.629"/>
</a>
</g>
<g id="a_edge2&#45;label"><a xlink:title="27.25MB">
<text text-anchor="middle" x="215.5" y="-332.3" font-family="Times,serif" font-size="14.00"> 27.25MB</text>
</a>
</g>
</g>
<!-- NN4_1 -->
<g id="NN4_1" class="node"><title>NN4_1</title>
<g id="a_NN4_1"><a xlink:title="18.47MB">
<polygon fill="#f8f8f8" stroke="black" points="298,-310 248,-310 244,-306 244,-274 294,-274 298,-278 298,-310"/>
<polyline fill="none" stroke="black" points="294,-306 244,-306 "/>
<polyline fill="none" stroke="black" points="294,-306 294,-274 "/>
<polyline fill="none" stroke="black" points="294,-306 298,-310 "/>
<text text-anchor="middle" x="271" y="-290.1" font-family="Times,serif" font-size="8.00">56kB</text>
</a>
</g>
</g>
<!-- N4&#45;&gt;NN4_1 -->
<g id="edge3" class="edge"><title>N4&#45;&gt;NN4_1</title>
<g id="a_edge3"><a xlink:title="18.47MB">
<path fill="none" stroke="black" d="M231.996,-361.852C237.789,-356.214 243.274,-350.218 248,-344 253.576,-336.663 258.178,-327.76 261.762,-319.459"/>
<polygon fill="black" stroke="black" points="265.033,-320.705 265.499,-310.12 258.534,-318.104 265.033,-320.705"/>
</a>
</g>
<g id="a_edge3&#45;label"><a xlink:title="18.47MB">
<text text-anchor="middle" x="286.5" y="-332.3" font-family="Times,serif" font-size="14.00"> 18.47MB</text>
</a>
</g>
</g>
<!-- NN4_2 -->
<g id="NN4_2" class="node"><title>NN4_2</title>
<g id="a_NN4_2"><a xlink:title="16.94MB">
<polygon fill="#f8f8f8" stroke="black" points="62,-310 4,-310 0,-306 0,-274 58,-274 62,-278 62,-310"/>
<polyline fill="none" stroke="black" points="58,-306 0,-306 "/>
<polyline fill="none" stroke="black" points="58,-306 58,-274 "/>
<polyline fill="none" stroke="black" points="58,-306 62,-310 "/>
<text text-anchor="middle" x="31" y="-290.1" font-family="Times,serif" font-size="8.00">112kB..224kB</text>
</a>
</g>
</g>
<!-- N4&#45;&gt;NN4_2 -->
<g id="edge4" class="edge"><title>N4&#45;&gt;NN4_2</title>
<g id="a_edge4"><a xlink:title="16.94MB">
<path fill="none" stroke="black" d="M80.0321,-361.906C72.1252,-356.491 64.6357,-350.527 58,-344 51.0463,-337.16 45.4766,-328.146 41.2439,-319.601"/>
<polygon fill="black" stroke="black" points="44.3432,-317.961 37.0306,-310.294 37.9661,-320.848 44.3432,-317.961"/>
</a>
</g>
<g id="a_edge4&#45;label"><a xlink:title="16.94MB">
<text text-anchor="middle" x="86.5" y="-332.3" font-family="Times,serif" font-size="14.00"> 16.94MB</text>
</a>
</g>
</g>
<!-- NN4_3 -->
<g id="NN4_3" class="node"><title>NN4_3</title>
<g id="a_NN4_3"><a xlink:title="15.93MB">
<polygon fill="#f8f8f8" stroke="black" points="138,-310 88,-310 84,-306 84,-274 134,-274 138,-278 138,-310"/>
<polyline fill="none" stroke="black" points="134,-306 84,-306 "/>
<polyline fill="none" stroke="black" points="134,-306 134,-274 "/>
<polyline fill="none" stroke="black" points="134,-306 138,-310 "/>
<text text-anchor="middle" x="111" y="-290.1" font-family="Times,serif" font-size="8.00">28kB</text>
</a>
</g>
</g>
<!-- N4&#45;&gt;NN4_3 -->
<g id="edge5" class="edge"><title>N4&#45;&gt;NN4_3</title>
<g id="a_edge5"><a xlink:title="15.93MB">
<path fill="none" stroke="black" d="M135.38,-361.837C131.124,-356.118 127.194,-350.107 124,-344 120.173,-336.681 117.427,-328.172 115.477,-320.227"/>
<polygon fill="black" stroke="black" points="118.858,-319.301 113.347,-310.253 112.013,-320.763 118.858,-319.301"/>
</a>
</g>
<g id="a_edge5&#45;label"><a xlink:title="15.93MB">
<text text-anchor="middle" x="152.5" y="-332.3" font-family="Times,serif" font-size="14.00"> 15.93MB</text>
</a>
</g>
</g>
<!-- N5&#45;&gt;N1 -->
<g id="edge19" class="edge"><title>N5&#45;&gt;N1</title>
<g id="a_edge19"><a xlink:title="encoding/json.(*decodeState).value &#45;&gt; encoding/json.(*decodeState).object (148.60MB)">
<path fill="none" stroke="#b21200" stroke-width="4" d="M581.722,-576.155C571.097,-586.533 557.508,-598.756 544,-608 501.023,-637.409 466.462,-615.754 439,-660 420.44,-689.902 439.048,-722.17 465.033,-748.566"/>
<polygon fill="#b21200" stroke="#b21200" points="462.921,-751.393 472.534,-755.848 467.797,-746.371 462.921,-751.393"/>
</a>
</g>
<g id="a_edge19&#45;label"><a xlink:title="encoding/json.(*decodeState).value &#45;&gt; encoding/json.(*decodeState).object (148.60MB)">
<text text-anchor="middle" x="471" y="-678.3" font-family="Times,serif" font-size="14.00"> 148.60MB</text>
</a>
</g>
</g>
<!-- N6 -->
<g id="node6" class="node"><title>N6</title>
<g id="a_node6"><a xlink:title="encoding/json.(*Decoder).refill (63.20MB)">
<polygon fill="#eddcd5" stroke="#b23600" points="943,-608 749,-608 749,-500 943,-500 943,-608"/>
<text text-anchor="middle" x="846" y="-585.6" font-family="Times,serif" font-size="23.00">json</text>
<text text-anchor="middle" x="846" y="-560.6" font-family="Times,serif" font-size="23.00">(*Decoder)</text>
<text text-anchor="middle" x="846" y="-535.6" font-family="Times,serif" font-size="23.00">refill</text>
<text text-anchor="middle" x="846" y="-510.6" font-family="Times,serif" font-size="23.00">63.20MB (29.68%)</text>
</a>
</g>
</g>
<!-- NN6_0 -->
<g id="NN6_0" class="node"><title>NN6_0</title>
<g id="a_NN6_0"><a xlink:title="32MB">
<polygon fill="#f8f8f8" stroke="black" points="836,-423 786,-423 782,-419 782,-387 832,-387 836,-391 836,-423"/>
<polyline fill="none" stroke="black" points="832,-419 782,-419 "/>
<polyline fill="none" stroke="black" points="832,-419 832,-387 "/>
<polyline fill="none" stroke="black" points="832,-419 836,-423 "/>
<text text-anchor="middle" x="809" y="-403.1" font-family="Times,serif" font-size="8.00">32MB</text>
</a>
</g>
</g>
<!-- N6&#45;&gt;NN6_0 -->
<g id="edge6" class="edge"><title>N6&#45;&gt;NN6_0</title>
<g id="a_edge6"><a xlink:title="32MB">
<path fill="none" stroke="black" d="M825.202,-499.872C823.265,-493.898 821.479,-487.855 820,-482 815.994,-466.137 813.301,-448.018 811.582,-433.451"/>
<polygon fill="black" stroke="black" points="815.017,-432.662 810.453,-423.101 808.058,-433.421 815.017,-432.662"/>
</a>
</g>
<g id="a_edge6&#45;label"><a xlink:title="32MB">
<text text-anchor="middle" x="840" y="-470.3" font-family="Times,serif" font-size="14.00"> 32MB</text>
</a>
</g>
</g>
<!-- NN6_1 -->
<g id="NN6_1" class="node"><title>NN6_1</title>
<g id="a_NN6_1"><a xlink:title="16MB">
<polygon fill="#f8f8f8" stroke="black" points="908,-423 858,-423 854,-419 854,-387 904,-387 908,-391 908,-423"/>
<polyline fill="none" stroke="black" points="904,-419 854,-419 "/>
<polyline fill="none" stroke="black" points="904,-419 904,-387 "/>
<polyline fill="none" stroke="black" points="904,-419 908,-423 "/>
<text text-anchor="middle" x="881" y="-403.1" font-family="Times,serif" font-size="8.00">16MB</text>
</a>
</g>
</g>
<!-- N6&#45;&gt;NN6_1 -->
<g id="edge7" class="edge"><title>N6&#45;&gt;NN6_1</title>
<g id="a_edge7"><a xlink:title="16MB">
<path fill="none" stroke="black" d="M858.636,-499.93C864.03,-477.275 870.093,-451.808 874.545,-433.113"/>
<polygon fill="black" stroke="black" points="877.988,-433.761 876.899,-423.223 871.178,-432.14 877.988,-433.761"/>
</a>
</g>
<g id="a_edge7&#45;label"><a xlink:title="16MB">
<text text-anchor="middle" x="887" y="-470.3" font-family="Times,serif" font-size="14.00"> 16MB</text>
</a>
</g>
</g>
<!-- NN6_2 -->
<g id="NN6_2" class="node"><title>NN6_2</title>
<g id="a_NN6_2"><a xlink:title="8MB">
<polygon fill="#f8f8f8" stroke="black" points="980,-423 930,-423 926,-419 926,-387 976,-387 980,-391 980,-423"/>
<polyline fill="none" stroke="black" points="976,-419 926,-419 "/>
<polyline fill="none" stroke="black" points="976,-419 976,-387 "/>
<polyline fill="none" stroke="black" points="976,-419 980,-423 "/>
<text text-anchor="middle" x="953" y="-403.1" font-family="Times,serif" font-size="8.00">8MB</text>
</a>
</g>
</g>
<!-- N6&#45;&gt;NN6_2 -->
<g id="edge8" class="edge"><title>N6&#45;&gt;NN6_2</title>
<g id="a_edge8"><a xlink:title="8MB">
<path fill="none" stroke="black" d="M897.072,-499.857C901.973,-493.988 906.709,-487.971 911,-482 922.185,-466.434 932.62,-447.583 940.291,-432.549"/>
<polygon fill="black" stroke="black" points="943.577,-433.804 944.913,-423.294 937.314,-430.677 943.577,-433.804"/>
</a>
</g>
<g id="a_edge8&#45;label"><a xlink:title="8MB">
<text text-anchor="middle" x="938.5" y="-470.3" font-family="Times,serif" font-size="14.00"> 8MB</text>
</a>
</g>
</g>
<!-- NN6_3 -->
<g id="NN6_3" class="node"><title>NN6_3</title>
<g id="a_NN6_3"><a xlink:title="7.20MB">
<polygon fill="#f8f8f8" stroke="black" points="764,-423 714,-423 710,-419 710,-387 760,-387 764,-391 764,-423"/>
<polyline fill="none" stroke="black" points="760,-419 710,-419 "/>
<polyline fill="none" stroke="black" points="760,-419 760,-387 "/>
<polyline fill="none" stroke="black" points="760,-419 764,-423 "/>
<text text-anchor="middle" x="737" y="-403.1" font-family="Times,serif" font-size="8.00">1MB..4MB</text>
</a>
</g>
</g>
<!-- N6&#45;&gt;NN6_3 -->
<g id="edge9" class="edge"><title>N6&#45;&gt;NN6_3</title>
<g id="a_edge9"><a xlink:title="7.20MB">
<path fill="none" stroke="black" d="M777.146,-499.631C771.968,-494.021 767.154,-488.119 763,-482 753.009,-467.282 746.519,-448.361 742.522,-433.081"/>
<polygon fill="black" stroke="black" points="745.882,-432.084 740.141,-423.18 739.076,-433.721 745.882,-432.084"/>
</a>
</g>
<g id="a_edge9&#45;label"><a xlink:title="7.20MB">
<text text-anchor="middle" x="788" y="-470.3" font-family="Times,serif" font-size="14.00"> 7.20MB</text>
</a>
</g>
</g>
<!-- N7 -->
<g id="node7" class="node"><title>N7</title>
<g id="a_node7"><a xlink:title="reflect.cvtBytesString (34MB)">
<polygon fill="#ede2da" stroke="#b26023" points="436,-445 296,-445 296,-365 436,-365 436,-445"/>
<text text-anchor="middle" x="366" y="-428.2" font-family="Times,serif" font-size="16.00">reflect</text>
<text text-anchor="middle" x="366" y="-410.2" font-family="Times,serif" font-size="16.00">cvtBytesString</text>
<text text-anchor="middle" x="366" y="-392.2" font-family="Times,serif" font-size="16.00">20MB (9.39%)</text>
<text text-anchor="middle" x="366" y="-374.2" font-family="Times,serif" font-size="16.00">of 34MB (15.97%)</text>
</a>
</g>
</g>
<!-- NN7_0 -->
<g id="NN7_0" class="node"><title>NN7_0</title>
<g id="a_NN7_0"><a xlink:title="20MB">
<polygon fill="#f8f8f8" stroke="black" points="393,-310 343,-310 339,-306 339,-274 389,-274 393,-278 393,-310"/>
<polyline fill="none" stroke="black" points="389,-306 339,-306 "/>
<polyline fill="none" stroke="black" points="389,-306 389,-274 "/>
<polyline fill="none" stroke="black" points="389,-306 393,-310 "/>
<text text-anchor="middle" x="366" y="-290.1" font-family="Times,serif" font-size="8.00">16B</text>
</a>
</g>
</g>
<!-- N7&#45;&gt;NN7_0 -->
<g id="edge10" class="edge"><title>N7&#45;&gt;NN7_0</title>
<g id="a_edge10"><a xlink:title="20MB">
<path fill="none" stroke="black" d="M366,-364.866C366,-350.09 366,-333.615 366,-320.171"/>
<polygon fill="black" stroke="black" points="369.5,-320.129 366,-310.129 362.5,-320.129 369.5,-320.129"/>
</a>
</g>
<g id="a_edge10&#45;label"><a xlink:title="20MB">
<text text-anchor="middle" x="386" y="-332.3" font-family="Times,serif" font-size="14.00"> 20MB</text>
</a>
</g>
</g>
<!-- N17 -->
<g id="node17" class="node"><title>N17</title>
<g id="a_node17"><a xlink:title="reflect.makeString (14MB)">
<polygon fill="#ede9e5" stroke="#b29877" points="469,-236 389,-236 389,-200 469,-200 469,-236"/>
<text text-anchor="middle" x="429" y="-225.1" font-family="Times,serif" font-size="8.00">reflect</text>
<text text-anchor="middle" x="429" y="-216.1" font-family="Times,serif" font-size="8.00">makeString</text>
<text text-anchor="middle" x="429" y="-207.1" font-family="Times,serif" font-size="8.00">0 of 14MB (6.58%)</text>
</a>
</g>
</g>
<!-- N7&#45;&gt;N17 -->
<g id="edge26" class="edge"><title>N7&#45;&gt;N17</title>
<g id="a_edge26"><a xlink:title="reflect.cvtBytesString &#45;&gt; reflect.makeString (14MB)">
<path fill="none" stroke="#b29877" d="M398.678,-364.939C403.051,-358.264 407.04,-351.163 410,-344 423.128,-312.225 427.304,-272.541 428.568,-246.52"/>
<polygon fill="#b29877" stroke="#b29877" points="432.075,-246.39 428.949,-236.267 425.08,-246.13 432.075,-246.39"/>
</a>
</g>
<g id="a_edge26&#45;label"><a xlink:title="reflect.cvtBytesString &#45;&gt; reflect.makeString (14MB)">
<text text-anchor="middle" x="447" y="-288.3" font-family="Times,serif" font-size="14.00"> 14MB</text>
</a>
</g>
</g>
<!-- N8 -->
<g id="node8" class="node"><title>N8</title>
<g id="a_node8"><a xlink:title="reflect.New (14MB)">
<polygon fill="#ede9e5" stroke="#b29877" points="483,-147.5 375,-147.5 375,-88.5 483,-88.5 483,-147.5"/>
<text text-anchor="middle" x="429" y="-131.5" font-family="Times,serif" font-size="15.00">reflect</text>
<text text-anchor="middle" x="429" y="-114.5" font-family="Times,serif" font-size="15.00">New</text>
<text text-anchor="middle" x="429" y="-97.5" font-family="Times,serif" font-size="15.00">14MB (6.58%)</text>
</a>
</g>
</g>
<!-- NN8_0 -->
<g id="NN8_0" class="node"><title>NN8_0</title>
<g id="a_NN8_0"><a xlink:title="14MB">
<polygon fill="#f8f8f8" stroke="black" points="456,-36 406,-36 402,-32 402,-0 452,-0 456,-4 456,-36"/>
<polyline fill="none" stroke="black" points="452,-32 402,-32 "/>
<polyline fill="none" stroke="black" points="452,-32 452,-0 "/>
<polyline fill="none" stroke="black" points="452,-32 456,-36 "/>
<text text-anchor="middle" x="429" y="-16.1" font-family="Times,serif" font-size="8.00">16B</text>
</a>
</g>
</g>
<!-- N8&#45;&gt;NN8_0 -->
<g id="edge11" class="edge"><title>N8&#45;&gt;NN8_0</title>
<g id="a_edge11"><a xlink:title="14MB">
<path fill="none" stroke="black" d="M429,-88.3909C429,-75.1496 429,-59.4904 429,-46.4016"/>
<polygon fill="black" stroke="black" points="432.5,-46.121 429,-36.1211 425.5,-46.1211 432.5,-46.121"/>
</a>
</g>
<g id="a_edge11&#45;label"><a xlink:title="14MB">
<text text-anchor="middle" x="449" y="-58.3" font-family="Times,serif" font-size="14.00"> 14MB</text>
</a>
</g>
</g>
<!-- NN9_0 -->
<g id="NN9_0" class="node"><title>NN9_0</title>
<g id="a_NN9_0"><a xlink:title="13MB">
<polygon fill="#f8f8f8" stroke="black" points="508,-423 458,-423 454,-419 454,-387 504,-387 508,-391 508,-423"/>
<polyline fill="none" stroke="black" points="504,-419 454,-419 "/>
<polyline fill="none" stroke="black" points="504,-419 504,-387 "/>
<polyline fill="none" stroke="black" points="504,-419 508,-423 "/>
<text text-anchor="middle" x="481" y="-403.1" font-family="Times,serif" font-size="8.00">16B</text>
</a>
</g>
</g>
<!-- N9&#45;&gt;NN9_0 -->
<g id="edge12" class="edge"><title>N9&#45;&gt;NN9_0</title>
<g id="a_edge12"><a xlink:title="13MB">
<path fill="none" stroke="black" d="M481,-524.308C481,-497.988 481,-459.273 481,-433.377"/>
<polygon fill="black" stroke="black" points="484.5,-433.137 481,-423.137 477.5,-433.137 484.5,-433.137"/>
</a>
</g>
<g id="a_edge12&#45;label"><a xlink:title="13MB">
<text text-anchor="middle" x="501" y="-470.3" font-family="Times,serif" font-size="14.00"> 13MB</text>
</a>
</g>
</g>
<!-- N10 -->
<g id="node10" class="node"><title>N10</title>
<g id="a_node10"><a xlink:title="main.(*Player).P1 (212.90MB)">
<polygon fill="#edd5d5" stroke="#b20000" points="778.25,-950 687.75,-950 687.75,-906 778.25,-906 778.25,-950"/>
<text text-anchor="middle" x="733" y="-939.6" font-family="Times,serif" font-size="8.00">main</text>
<text text-anchor="middle" x="733" y="-930.6" font-family="Times,serif" font-size="8.00">(*Player)</text>
<text text-anchor="middle" x="733" y="-921.6" font-family="Times,serif" font-size="8.00">P1</text>
<text text-anchor="middle" x="733" y="-912.6" font-family="Times,serif" font-size="8.00">0 of 212.90MB (100%)</text>
</a>
</g>
</g>
<!-- N10&#45;&gt;N3 -->
<g id="edge15" class="edge"><title>N10&#45;&gt;N3</title>
<g id="a_edge15"><a xlink:title="main.(*Player).P1 &#45;&gt; encoding/json.(*Decoder).Decode (211.79MB)">
<path fill="none" stroke="#b20000" stroke-width="5" d="M733,-905.923C733,-886.954 733,-858.826 733,-837.242"/>
<polygon fill="#b20000" stroke="#b20000" points="737.375,-837.241 733,-827.241 728.625,-837.241 737.375,-837.241"/>
</a>
</g>
<g id="a_edge15&#45;label"><a xlink:title="main.(*Player).P1 &#45;&gt; encoding/json.(*Decoder).Decode (211.79MB)">
<text text-anchor="middle" x="765" y="-876.3" font-family="Times,serif" font-size="14.00"> 211.79MB</text>
</a>
</g>
</g>
<!-- N11 -->
<g id="node11" class="node"><title>N11</title>
<g id="a_node11"><a xlink:title="main.(*manager).UpdateAppDependencies_1 (1.11MB)">
<polygon fill="#ededec" stroke="#b2b1ad" points="932.25,-831 799.75,-831 799.75,-779 932.25,-779 932.25,-831"/>
<text text-anchor="middle" x="866" y="-819" font-family="Times,serif" font-size="10.00">main</text>
<text text-anchor="middle" x="866" y="-808" font-family="Times,serif" font-size="10.00">(*manager)</text>
<text text-anchor="middle" x="866" y="-797" font-family="Times,serif" font-size="10.00">UpdateAppDependencies_1</text>
<text text-anchor="middle" x="866" y="-786" font-family="Times,serif" font-size="10.00">1.11MB (0.52%)</text>
</a>
</g>
</g>
<!-- N10&#45;&gt;N11 -->
<g id="edge29" class="edge"><title>N10&#45;&gt;N11</title>
<g id="a_edge29"><a xlink:title="main.(*Player).P1 &#45;&gt; main.(*manager).UpdateAppDependencies_1 (1.11MB)">
<path fill="none" stroke="#b2b1ad" d="M775.665,-905.853C784.465,-900.6 793.367,-894.569 801,-888 817.265,-874.002 832.359,-855.463 843.9,-839.554"/>
<polygon fill="#b2b1ad" stroke="#b2b1ad" points="847.011,-841.217 849.931,-831.032 841.297,-837.173 847.011,-841.217"/>
</a>
</g>
<g id="a_edge29&#45;label"><a xlink:title="main.(*Player).P1 &#45;&gt; main.(*manager).UpdateAppDependencies_1 (1.11MB)">
<text text-anchor="middle" x="843" y="-876.3" font-family="Times,serif" font-size="14.00"> 1.11MB</text>
</a>
</g>
</g>
<!-- N12&#45;&gt;N6 -->
<g id="edge23" class="edge"><title>N12&#45;&gt;N6</title>
<g id="a_edge23"><a xlink:title="encoding/json.(*Decoder).readValue &#45;&gt; encoding/json.(*Decoder).refill (63.20MB)">
<path fill="none" stroke="#b23600" stroke-width="2" d="M846,-659.91C846,-648.412 846,-633.506 846,-618.557"/>
<polygon fill="#b23600" stroke="#b23600" points="849.5,-618.243 846,-608.243 842.5,-618.243 849.5,-618.243"/>
</a>
</g>
<g id="a_edge23&#45;label"><a xlink:title="encoding/json.(*Decoder).readValue &#45;&gt; encoding/json.(*Decoder).refill (63.20MB)">
<text text-anchor="middle" x="874.5" y="-630.3" font-family="Times,serif" font-size="14.00"> 63.20MB</text>
</a>
</g>
</g>
<!-- N13&#45;&gt;N5 -->
<g id="edge18" class="edge"><title>N13&#45;&gt;N5</title>
<g id="a_edge18"><a xlink:title="encoding/json.(*decodeState).unmarshal &#45;&gt; encoding/json.(*decodeState).value (148.60MB)">
<path fill="none" stroke="#b21200" stroke-width="4" d="M711.074,-659.91C689.253,-638.923 655.625,-606.579 631.478,-583.353"/>
<polygon fill="#b21200" stroke="#b21200" points="633.632,-580.568 623.998,-576.158 628.779,-585.613 633.632,-580.568"/>
</a>
</g>
<g id="a_edge18&#45;label"><a xlink:title="encoding/json.(*decodeState).unmarshal &#45;&gt; encoding/json.(*decodeState).value (148.60MB)">
<text text-anchor="middle" x="723" y="-630.3" font-family="Times,serif" font-size="14.00"> 148.60MB</text>
</a>
</g>
</g>
<!-- N14&#45;&gt;N10 -->
<g id="edge13" class="edge"><title>N14&#45;&gt;N10</title>
<g id="a_edge13"><a xlink:title="main.main &#45;&gt; main.(*Player).P1 (212.90MB)">
<path fill="none" stroke="#b20000" stroke-width="6" d="M733,-1001.65C733,-989.924 733,-974.114 733,-960.237"/>
<polygon fill="#b20000" stroke="#b20000" points="738.25,-960.101 733,-950.101 727.75,-960.101 738.25,-960.101"/>
</a>
</g>
<g id="a_edge13&#45;label"><a xlink:title="main.main &#45;&gt; main.(*Player).P1 (212.90MB)">
<text text-anchor="middle" x="765" y="-972.3" font-family="Times,serif" font-size="14.00"> 212.90MB</text>
</a>
</g>
</g>
<!-- N15&#45;&gt;N7 -->
<g id="edge25" class="edge"><title>N15&#45;&gt;N7</title>
<g id="a_edge25"><a xlink:title="reflect.Value.Convert &#45;&gt; reflect.cvtBytesString (34MB)">
<path fill="none" stroke="#b26023" d="M312.883,-531.938C321.352,-511.858 334.417,-480.882 345.47,-454.676"/>
<polygon fill="#b26023" stroke="#b26023" points="348.777,-455.841 349.439,-445.267 342.327,-453.12 348.777,-455.841"/>
</a>
</g>
<g id="a_edge25&#45;label"><a xlink:title="reflect.Value.Convert &#45;&gt; reflect.cvtBytesString (34MB)">
<text text-anchor="middle" x="361" y="-470.3" font-family="Times,serif" font-size="14.00"> 34MB</text>
</a>
</g>
</g>
<!-- N16&#45;&gt;N4 -->
<g id="edge21" class="edge"><title>N16&#45;&gt;N4</title>
<g id="a_edge21"><a xlink:title="reflect.Value.SetMapIndex &#45;&gt; reflect.mapassign (80.60MB)">
<path fill="none" stroke="#b22d00" stroke-width="2" d="M178.57,-531.938C178.18,-512.82 177.588,-483.825 177.071,-458.474"/>
<polygon fill="#b22d00" stroke="#b22d00" points="180.565,-458.165 176.862,-448.238 173.567,-458.308 180.565,-458.165"/>
</a>
</g>
<g id="a_edge21&#45;label"><a xlink:title="reflect.Value.SetMapIndex &#45;&gt; reflect.mapassign (80.60MB)">
<text text-anchor="middle" x="206.5" y="-470.3" font-family="Times,serif" font-size="14.00"> 80.60MB</text>
</a>
</g>
</g>
<!-- N17&#45;&gt;N8 -->
<g id="edge27" class="edge"><title>N17&#45;&gt;N8</title>
<g id="a_edge27"><a xlink:title="reflect.makeString &#45;&gt; reflect.New (14MB)">
<path fill="none" stroke="#b29877" d="M429,-199.93C429,-188.368 429,-172.606 429,-158.063"/>
<polygon fill="#b29877" stroke="#b29877" points="432.5,-157.766 429,-147.766 425.5,-157.766 432.5,-157.766"/>
</a>
</g>
<g id="a_edge27&#45;label"><a xlink:title="reflect.makeString &#45;&gt; reflect.New (14MB)">
<text text-anchor="middle" x="449" y="-170.3" font-family="Times,serif" font-size="14.00"> 14MB</text>
</a>
</g>
</g>
</g>
</g></svg>
